<svg width="51" height="51" viewBox="0 0 51 51" fill="none" xmlns="http://www.w3.org/2000/svg">
<path d="M12.75 42.5C10.4125 42.5 8.41146 41.6677 6.74687 40.0031C5.08229 38.3385 4.25 36.3375 4.25 34C4.25 31.6625 5.08229 29.6615 6.74687 27.9969C8.41146 26.3323 10.4125 25.5 12.75 25.5C14.45 25.5 16.0168 25.9604 17.4505 26.8812C18.8842 27.8021 19.9205 29.0594 20.5594 30.6531L21.0906 31.875H22.3656C23.8531 31.875 25.1019 32.3885 26.112 33.4156C27.1221 34.4427 27.6264 35.7 27.625 37.1875C27.625 38.675 27.1115 39.9323 26.0844 40.9594C25.0573 41.9865 23.8 42.5 22.3125 42.5H12.75ZM31.8219 36.55C31.6802 34.3188 30.8748 32.3885 29.4058 30.7594C27.9367 29.1302 26.0858 28.1208 23.8531 27.7313C22.7552 25.8188 21.2769 24.3043 19.4182 23.188C17.5596 22.0717 15.5139 21.4257 13.2812 21.25C14.2021 18.6646 15.7781 16.6012 18.0094 15.0599C20.2406 13.5185 22.7375 12.7486 25.5 12.75C29.0417 12.75 32.0521 13.9896 34.5312 16.4688C37.0104 18.9479 38.25 21.9583 38.25 25.5C38.25 27.8021 37.6833 29.9363 36.55 31.9026C35.4167 33.869 33.8406 35.4181 31.8219 36.55ZM23.375 10.625V2.125H27.625V10.625H23.375ZM37.5062 16.4688L34.5312 13.4937L40.4812 7.4375L43.5094 10.4656L37.5062 16.4688ZM40.375 27.625V23.375H48.875V27.625H40.375ZM40.4812 43.5625L34.5312 37.5062L37.5062 34.5312L43.5625 40.4812L40.4812 43.5625ZM13.4937 16.4688L7.49063 10.4656L10.5187 7.4375L16.4688 13.4937L13.4937 16.4688Z" fill="white"/>
</svg>
